<?xml version="1.0" encoding="utf-8"?>
<!-- Generator: Adobe Illustrator 19.0.0, SVG Export Plug-In . SVG Version: 6.00 Build 0)  -->
<svg version="1.1" id="Layer_1" xmlns="http://www.w3.org/2000/svg" xmlns:xlink="http://www.w3.org/1999/xlink" x="0px" y="0px"
	 viewBox="0 0 1992.2 871.7" style="enable-background:new 0 0 1992.2 871.7;" xml:space="preserve">
<style type="text/css">
	.st0{fill:#E3E3E3;}
	.st1{fill:#4A8FCC;}
	.st2{fill:#F4F4F4;}
	.st3{fill:#1176BC;}
	.st4{fill:#B6B7B7;}
	.st5{fill:#C2C2C2;}
</style>
<g id="XMLID_1_">
	<path id="XMLID_28_" class="st0" d="M614.2,1c458.2,0,916.3,0,1374.5-0.1c3.7,0,4.6,0.8,4.6,4.6c-0.1,95.5-0.1,191-0.1,286.5
		c-5.3,0.3-10.7-1.1-15.8,0.9c-16.1,6.3-32.2,12.7-48.2,19.1c-70.3,28-140.5,56.1-210.8,84.1c-72.7,29-145.5,58-218.2,86.9
		c-45.4,18.1-90.8,36.1-136.2,54.2c-80,31.9-159.9,63.9-240,95.8c-7.8,3.1-15.4,7.1-23.7,8.8c-0.6-1.3-1.9-1.8-3.1-2.4
		c-42-25-83.9-50-125.9-75c-38.1-22.8-76.1-45.7-114.2-68.4c-41.2-24.6-82.6-49-123.8-73.6c-33.4-19.9-66.8-39.8-100-60
		c-6.5-3.9-12.3-7-19.1-1.4C614.2,241,614.2,121,614.2,1z"/>
	<path id="XMLID_27_" class="st1" d="M1993.2,317c0,183.8,0,367.7,0.1,551.5c0,3.7-0.8,4.6-4.6,4.6c-463.5-0.1-927-0.1-1390.5-0.1
		c0.4-0.3,0.7-0.7,1.1-0.9c47.6-19,95.2-38,142.9-57c81.6-32.5,163.1-64.9,244.7-97.4c76.5-30.5,152.9-61.1,229.3-91.5
		c84.8-33.8,169.6-67.5,254.4-101.3c68.3-27.2,136.5-54.5,204.8-81.8c91.2-36.4,182.5-72.8,273.8-109.1
		C1963.7,328.3,1978.2,321.9,1993.2,317z"/>
	<path id="XMLID_26_" class="st2" d="M620.2,1c0,120,0,240,0,360c-6.9,4-13.8,8-20.8,11.9c-30.2,16.8-60.5,33.6-90.7,50.5
		c-33.1,18.5-66.2,37.1-99.3,55.5c-30.2,16.9-60.5,33.6-90.7,50.5c-34,18.9-68,37.9-101.9,56.9c-11.6,6.5-23.1,13.2-34.6,19.8
		c-1.9-0.1-5.8,1.2-7.3,0.4c-51.1-28.5-101-56.1-151.8-85c-8-4.5-16.1-5.8-23.9-8.5c0-168.8,0.1-338.5,0-507.4
		c0-3.7,0.8-4.6,4.6-4.6C209.2,1,414.7,1,620.2,1z"/>
	<path id="XMLID_25_" class="st3" d="M593.2,873c-198.5,0-397,0-595.5,0.1c-3.7,0-4.6-0.8-4.6-4.6C-6.8,758-6.8,647.5-6.8,537
		c8,4.3,16,8.6,24,13c43.9,24.4,87.8,48.9,131.6,73.4c49.9,27.9,99.9,55.8,149.8,83.7c36.2,20.2,72.3,40.5,108.4,60.7
		c34.1,19.1,68.2,38.2,102.4,57.2c27.1,15.1,54.2,30.1,81.3,45.2C591.8,870.8,593.2,871.3,593.2,873z"/>
	<path id="XMLID_24_" class="st4" d="M593.2,873c0-1.7-1.4-2.2-2.5-2.8c-27.1-15.1-54.2-30.1-81.3-45.2
		c-34.1-19-68.3-38.1-102.4-57.2c-36.1-20.2-72.3-40.5-108.4-60.7c-49.9-27.9-99.9-55.8-149.8-83.7c-43.9-24.5-87.7-49-131.6-73.4
		c-7.9-4.4-16-8.7-24-13c0-8.3,0-17.5,0-25.8c8.2,2,15.4,3.2,24.9,7c50.9,28.8,102,57.2,153.1,85.7c1.7,0.8,3.4,1.8,4.9,2.3
		c0.8,0.6,1.6,1.2,2.2,1.8c12.6,7,25.3,14,38,21c18.2,10.1,36.4,20.2,54.5,30.3c23.9,13.4,47.8,26.9,71.7,40.3
		c24.2,13.5,48.6,26.9,72.8,40.5c32.2,18,64.3,36.2,96.5,54.2c27.4,15.3,55,30.4,82.4,45.9c3,1.7,5.5,1.7,8.4,0.6
		c21.6-8.6,43.2-17.2,64.8-25.9c45.5-18.2,91-36.5,136.6-54.7c48.2-19.2,96.4-38.2,144.6-57.4c39.2-15.6,78.5-31.2,117.6-47
		c11.4-4.6,23.1-8.3,34.1-13.9c8.3-1.8,15.9-5.7,23.7-8.8c80-31.9,160-63.8,240-95.8c45.4-18.1,90.8-36.2,136.2-54.2
		c72.7-29,145.5-57.9,218.2-86.9c70.3-28,140.5-56,210.8-84.1c16.1-6.4,32.1-12.8,48.2-19.1c5.2-2,10.5-0.6,15.8-0.9
		c0,8.3,0,16.7,0,25c-15,4.9-29.4,11.3-44.1,17.1c-91.3,36.3-182.5,72.7-273.8,109.1c-68.3,27.2-136.5,54.5-204.8,81.8
		c-84.8,33.8-169.6,67.5-254.4,101.3c-76.5,30.5-152.9,61.1-229.3,91.5c-81.5,32.5-163.1,64.9-244.7,97.4c-47.6,19-95.3,38-142.9,57
		c-0.4,0.2-0.7,0.6-1.1,0.9C596.5,873,594.8,873,593.2,873z"/>
	<path id="XMLID_23_" class="st5" d="M1100.2,641.9c-11,5.6-22.7,9.3-34.1,13.9c-39.1,15.8-78.4,31.4-117.6,47
		C900.4,722,852.1,741,804,760.2c-45.5,18.2-91,36.5-136.6,54.7c-21.6,8.6-43.2,17.2-64.8,25.9c-2.9,1.2-5.3,1.1-8.4-0.6
		c-27.4-15.4-54.9-30.5-82.4-45.9c-32.2-18-64.3-36.2-96.5-54.2c-24.2-13.6-48.6-26.9-72.8-40.5c-23.9-13.4-47.8-26.9-71.7-40.3
		c-18.1-10.2-36.3-20.2-54.5-30.3c-12.6-7-25.3-14-38-21c-0.7-0.6-1.4-1-2.1-1.7c11.5-6.6,23-13.6,34.6-20.1
		c34-19,67.9-38,101.9-56.9c30.2-16.8,60.5-33.6,90.7-50.5c33.1-18.5,66.2-37.1,99.3-55.5c30.2-16.9,60.5-33.6,90.7-50.5
		c7-3.9,13.9-7.9,20.8-11.9c6.8-5.6,12.6-2.5,19.1,1.4c33.2,20.2,66.6,40.1,100,60c41.2,24.6,82.6,49,123.8,73.6
		c38.1,22.7,76.1,45.6,114.2,68.4c41.9,25.1,83.9,50,125.9,75C1098.3,640.1,1099.6,640.6,1100.2,641.9z"/>
</g>
</svg>
