<?xml version="1.0" encoding="utf-8"?>
<!-- Generator: Adobe Illustrator 19.0.0, SVG Export Plug-In . SVG Version: 6.00 Build 0)  -->
<svg version="1.1" id="Layer_1" xmlns="http://www.w3.org/2000/svg" xmlns:xlink="http://www.w3.org/1999/xlink" x="0px" y="0px"
	 viewBox="0 233 611.5 317.3" style="enable-background:new 0 233 611.5 317.3;" xml:space="preserve">
<style type="text/css">
	.st0{fill:#67361B;}
	.st1{fill:#166DB9;}
</style>
<g id="Layer_2">
	<rect id="XMLID_9_" x="-0.3" y="471.3" class="st0" width="612" height="79"/>
</g>
<path id="XMLID_26_" class="st1" d="M611.5,232.2c-1.3,4.8-2.6,9.5-3.9,14.3c-0.2,0.9-0.7,1.4-1.4,1.9c-4,2.5-8,5.1-12,7.6
	c-0.8,0.5-1.3,1-1.8,1.8c-4.2,6.1-8.4,12.2-12.6,18.2c-0.7,1-1,1.9-1.1,3.1c-1.3,11.3-2.5,22.7-3.8,34c-0.4,3.1-0.7,6.3-1.1,9.9
	c-4.4-5.9-8.5-11.5-12.8-17.3c-0.3,0.8-0.6,1.3-0.8,1.9c-6.2,15.5-12.5,31-18.7,46.5c-0.3,0.8-0.8,1.5-1.5,2.1
	c-6.5,5.6-12.9,11.3-19.3,17c-0.7,0.7-1.2,0.7-2.1,0.2c-6.1-3.9-12.2-7.6-18.3-11.5c-0.9-0.6-1.5-0.7-2.4,0
	c-7.2,4.8-14.5,9.5-21.8,14.1c-0.8,0.5-1.2,1.2-1.7,1.9c-11.5,18.9-23,37.8-34.5,56.7c-0.6,0.9-1.3,1.5-2.2,2
	c-3.9,1.9-7.7,3.9-11.6,5.8c-1.6,0.8-3,1.8-4.3,3.1c-6.4,6.5-12.8,12.9-19.2,19.3c-1.4,1.4-1.4,1.4-2.9,0.1
	c-7.9-7.1-15.8-14.2-23.6-21.3c-2.2-1.9-4.8-3.1-7.2-4.7c-1.9-1.2-4-2.3-5.9-3.6c-0.8-0.5-1.6-0.6-2.6-0.4c-6.4,1.5-12.8,3-19.2,4.6
	c-1.1,0.3-1.6,0-2.3-0.8c-6-7.4-12-14.7-17.9-22.1c-0.8-1-1.6-1.2-2.8-0.9c-13.2,3-26.4,6.1-39.6,9c-3.3,0.7-6.7,0.6-10,0.9
	c-8.8,0.7-17.6,1.3-26.4,1.9c-0.7,0-1.2,0.4-1.7,0.8c-6.2,5.2-12.4,10.5-18.6,15.7c-0.8,0.7-1.6,1.2-2.5,1.7c-7,4-14.1,8-21.1,12
	c-1.1,0.6-1.7,0.5-2.6-0.2c-10.8-8.2-21.6-16.4-32.4-24.6c-0.8-0.6-1.5-0.8-2.5-0.4c-3,1.1-6,2-9,3c-0.9,0.3-1.6,0.8-2.2,1.5
	c-3.2,3.6-6.5,7.2-9.7,10.8c-0.8,0.9-1.1,0.8-1.6-0.2c-4.5-8.4-9.1-16.7-13.7-25.1c-0.3-0.6-0.6-1.2-0.7-1.8
	c-4-14.3-8.1-28.5-12-42.8c-0.4-1.4-0.8-2-2.4-1.6c-4.3,1-8.6,1.7-12.9,2.6c-1.2,0.3-1.5-0.1-1.9-1.1c-4.5-12.1-9.2-24.3-13.7-36.5
	c-0.4-1.1-1.1-1.7-2.1-2.2c-6.4-3.1-12.8-6.4-19.1-9.5c-0.9-0.5-1.5-1.1-2.1-1.9c-5.2-8.2-10.5-16.3-15.7-24.4
	c-0.3-0.4-0.5-0.9-1-1.2c-2.7,2.8-5.3,5.7-8.2,8.8c-0.6-2.5-1.1-4.8-1.7-7.1c-2.2-9.5-4.3-19-6.5-28.5c-0.2-0.8-0.5-1.4-1.4-1.6
	c-0.1,0-0.1,0-0.1-0.1c-2.4-1.1-5.3-1.8-7-3.6c-1.7-1.7-2.2-4.6-3.2-7c-4.2-9.7-8.3-19.4-12.4-29.1c-0.2-0.5-0.5-0.9-0.7-1.4v271.8
	c5.6,1.9,11.3,3.6,17,5.2c10,2.9,20.1,5.5,30.2,7.9c8.4,2,16.9,4,25.4,5.8c7.1,1.5,14.3,3,21.4,4.3c6.6,1.2,13.3,2.3,19.9,3.4
	c5.5,0.9,11,1.9,16.6,2.7c4.7,0.7,9.3,1.2,14,1.9c5.1,0.7,10.1,1.5,15.2,2.1c3.9,0.5,7.9,0.8,11.8,1.3c4.4,0.5,8.8,1,13.2,1.5
	c1,0.1,2,0.2,3.1,0.3h-0.2c49.5,5.4,105.9,6,105.9,6s53.8-0.2,116.4-6c3.6,0,7.3-0.7,10.9-1.1c2.4-0.3,4.9-0.5,7.4-0.7
	c3.3-0.3,6.7-0.8,10-1.2c2-0.2,4.1-0.4,6.1-0.7c4-0.5,8-1,11.9-1.5c3.5-0.4,7-0.8,10.5-1.3c3.1-0.4,6.3-0.8,9.4-1.3
	c3.2-0.5,6.4-1,9.6-1.4c2.9-0.4,5.8-0.9,8.8-1.3c3.5-0.5,7-1.1,10.5-1.7c4.4-0.7,8.8-1.5,13.1-2.3c3.8-0.7,7.7-1.3,11.5-2
	c4.4-0.8,8.8-1.7,13.2-2.6c6.3-1.3,12.5-2.5,18.8-3.9c5.2-1.1,10.5-2.2,15.6-3.4c8.7-2.1,17.4-4.2,26.1-6.4c2.7-0.7,5.4-1.5,8.1-2.1
	c0.6-0.1,0.6-0.4,0.6-0.8c0-0.5,0-0.9,0-1.4V232.2H611.5z"/>
</svg>
